# xmcd
#
# Track frame offsets:
#        150
#        36152
#        56897
#        95822
#        126112
#        146587
#        215517
#        249655
#
# Disc length: 3893 seconds
#
# Revision: 4
# Processed by: cddbd v1.5.1PL2 Copyright (c) Steve Scherf et al.
# Submitted via: ExactAudioCopy v0.95b4
#
DISCID=7c0f3308
DTITLE=Jimmy Smith - The Best Of Jimmy Smith
DYEAR=1993
DGENRE=Jazz
TTITLE0=When Johnny Comes Marching Home
TTITLE1=The Preacher
TTITLE2=The Champ
TTITLE3=Lover Come Back To Me
TTITLE4=Summertime
TTITLE5=What Is This Thing Called Love
TTITLE6=Minor Chant
TTITLE7=I Almost Lost My Mind
EXTD=
EXTT0=
EXTT1=
EXTT2=
EXTT3=
EXTT4=
EXTT5=
EXTT6=
EXTT7=
PLAYORDER=
